. 
 
http://www.torrenting.com          :     Once & For all ;)


               www . Torrenting . Com 

(((((((((((((= Enjoy No RAR releases =))))))))))))))))))))


...................................NFO:....................................

.[IMG]http://i.imgur.com/2mcr9.png[/IMG]

 
TITLE: 

Demons Never Die 2011 720p BRRiP AC3 XViD  - INSPiRAL

IMDB: 
 
http://www.imdb.com/title/tt1777612/

SOURCES:

VIDEO - 1080P WEST THANKS
AUDIO - 1080P WEST THANKS
SUBS  - None Add

STATS:

Video
ID                               : 0
Format                           : MPEG-4 Visual
Format profile                   : Advanced Simple@L5
Format settings, BVOP            : 2
Format settings, QPel            : No
Format settings, GMC             : No warppoints
Format settings, Matrix          : Default (MPEG)
Muxing mode                      : Packed bitstream
Codec ID                         : XVID
Codec ID/Hint                    : XviD
Duration                         : 1h 33mn
Bit rate                         : 3 121 Kbps
Width                            : 1 280 pixels
Height                           : 544 pixels
Display aspect ratio             : 2.35:1
Frame rate                       : 24.000 fps
Color space                      : YUV
Chroma subsampling               : 4:2:0
Bit depth                        : 8 bits
Scan type                        : Progressive
Compression mode                 : Lossy
Bits/(Pixel*Frame)               : 0.187
Stream size                      : 2.03 GiB (87%)
Writing library                  : XviD 64

Audio
ID                               : 1
Format                           : AC-3
Format/Info                      : Audio Coding 3
Mode extension                   : CM (complete main)
Codec ID                         : 2000
Duration                         : 1h 33mn
Bit rate mode                    : Constant
Bit rate                         : 448 Kbps
Channel(s)                       : 6 channels
Channel positions                : Front: L C R, Side: L R, LFE
Sampling rate                    : 48.0 KHz
Bit depth                        : 16 bits
Compression mode                 : Lossy
Stream size                      : 298 MiB (13%)
Alignment                        : Aligned on interleaves
Interleave, duration             : 42 ms (1.00 video frame)
Interleave, preload duration     : 512 ms


NOTES:

Straight forward rip off the 1080p ....nothing special done,just done the right way :)
Audio encoded to AC3 448 from DTS and remuxed.


SCREENS:

[IMG]http://i.imgur.com/37nXT.png[/IMG]
[IMG]http://i.imgur.com/pEP9G.png[/IMG]
[IMG]http://i.imgur.com/dbWTM.png[/IMG]
[IMG]http://i.imgur.com/981mp.png[/IMG]


GREETZ: 

Past,Present and Future

[IMG]http://i.imgur.com/2mcr9.png[/IMG]